<svg xmlns="http://www.w3.org/2000/svg" viewBox="-20 -20 440 340"><path d="M257.82,281.51l-91.27-158.16c-2.39-4.14-2.39-9.25,0-13.39L224.17,10.05C226.75,5.56,223.49-.04,218.31,0h-47.83c-4.76.03-9.12,2.93-11.49,7.05L.92,281.12c-2.57,4.45.5,10.41,5.64,10.44l47.49-.1c4.82.03,9.28-2.53,11.69-6.71l57.56-99.82c2.58-4.47,9.03-4.47,11.61,0l57.65,99.92c2.39,4.15,6.82,6.7,11.61,6.7h47.84c5.16,0,8.38-5.58,5.8-10.05Z"/><path d="M257.17,68.51l-23.36,41.33c-2.32,4.11-2.31,9.14.03,13.24l92.45,161.76c2.39,4.18,6.83,6.75,11.64,6.75h47.81c5.16,0,8.38-5.58,5.81-10.04l-122.73-213.09c-2.59-4.5-9.09-4.47-11.64.05Z"/></svg>